# xmcd
#
# Track frame offsets:
#	150
#	18207
#	50568
#	75710
#	96816
#	116784
#	154950
#	177500
#	202597
#	239496
#	260359
#	293357
#	333102
#	367538
#
# Disc length: 5338 seconds
#
# Revision: 0
# Processed by: cddbd v1.5.1PL2 Copyright (c) Steve Scherf et al.
# Submitted via: EasyCDDAExtractor 9.0.0.1
#
DISCID=b314d80e
DTITLE=Eric Clapton - Just One Night (90 min. Cd)
DYEAR=1980
DGENRE=Blues
TTITLE0=Tulsa Time
TTITLE1=Early In The Morning
TTITLE2=Lay Down Sally
TTITLE3=Wonderful Tonight
TTITLE4=If I Don't Be There By Morning
TTITLE5=Worried Life Blues
TTITLE6=All Our Past Times
TTITLE7=After Midnight
TTITLE8=Double Trouble
TTITLE9=Setting Me Up
TTITLE10=Blues Power
TTITLE11=Rambling On My Mind
TTITLE12=Cocaine
TTITLE13=Further On Up The Road
EXTD=
EXTT0=
EXTT1=
EXTT2=
EXTT3=
EXTT4=
EXTT5=
EXTT6=
EXTT7=
EXTT8=
EXTT9=
EXTT10=
EXTT11=
EXTT12=
EXTT13=
PLAYORDER=
